<svg xmlns="http://www.w3.org/2000/svg" xmlns:xlink="http://www.w3.org/1999/xlink" width="1200" zoomAndPan="magnify"
     viewBox="0 0 900 899.99999" height="1200" preserveAspectRatio="xMidYMid meet" version="1.0">
  <path fill="black"
        d="M 770.859375 716.3125 L 836.546875 678.101562 C 839.769531 676.171875 841.699219 672.734375 841.699219 669.085938 L 841.699219 233.75 C 841.699219 230.101562 839.769531 226.449219 836.546875 224.734375 L 458.097656 4.917969 C 454.875 2.984375 450.796875 2.984375 447.578125 4.917969 L 68.054688 222.585938 C 64.832031 224.519531 62.6875 227.953125 62.6875 231.816406 L 62.6875 671.449219 C 62.6875 675.3125 64.832031 678.746094 68.054688 680.679688 L 134.382812 717.386719 C 141.46875 721.25 150.054688 716.097656 150.054688 708.15625 L 151.128906 281.832031 C 151.128906 278.183594 153.058594 274.535156 156.496094 272.816406 L 393.269531 136.078125 C 400.351562 132 408.9375 137.152344 408.9375 145.09375 L 411.515625 670.375 C 411.515625 674.023438 413.445312 677.457031 416.453125 679.175781 L 446.71875 697.851562 C 449.9375 699.785156 454.019531 700 457.453125 698.066406 L 489.4375 679.820312 C 492.65625 677.886719 494.804688 674.453125 494.804688 670.804688 L 496.949219 144.664062 C 496.949219 136.507812 505.75 131.570312 512.835938 135.648438 L 750.683594 273.464844 C 753.902344 275.394531 755.835938 278.828125 755.835938 282.695312 L 754.546875 707.726562 C 754.976562 715.238281 763.777344 720.390625 770.859375 716.3125 Z M 770.859375 716.3125 "
        fill-opacity="1" fill-rule="nonzero"/>
  <path fill="black"
        d="M 602.996094 286.554688 L 664.386719 322.621094 C 668.464844 324.980469 670.828125 329.273438 670.828125 333.996094 L 670.183594 767.832031 C 670.183594 772.554688 667.609375 776.847656 663.53125 779.210938 L 460.242188 896.628906 C 456.164062 898.992188 451.011719 898.992188 446.933594 896.628906 L 244.292969 777.921875 C 240.214844 775.558594 237.851562 771.265625 237.851562 766.542969 L 237.851562 332.925781 C 237.851562 328.203125 240.425781 323.910156 244.507812 321.546875 L 305.898438 286.34375 C 314.703125 281.40625 325.648438 287.628906 325.648438 297.71875 L 325.003906 717.816406 C 325.003906 722.539062 327.582031 726.832031 331.660156 729.191406 L 447.148438 795.308594 C 451.226562 797.671875 456.164062 797.671875 460.027344 795.308594 L 578.523438 729.191406 C 582.601562 726.832031 585.390625 722.539062 585.175781 717.601562 L 583.03125 297.933594 C 583.03125 287.84375 594.195312 281.40625 602.996094 286.554688 Z M 602.996094 286.554688 "
        fill-opacity="1" fill-rule="nonzero"/>
</svg>
